<?xml version="1.0" encoding="utf-8"?>
<?xml-stylesheet type="text/xsl" href="rss1.xsl"?>
<rss version="2.0" xmlns:atom="http://www.w3.org/2005/Atom" xmlns:content="http://purl.org/rss/1.0/modules/content/" xmlns:dc="http://purl.org/dc/elements/1.1/" xmlns:media="http://search.yahoo.com/mrss/">
<channel>
 <title>Getty</title>
 <link>http://www.gettyimg.com/</link>
 <atom:link href="http://www.gettyimg.com/" rel="self" type="application/rss+xml" />

 
                <item>
                <title><![CDATA[【HD Live Performances】FEED - Avril Lavigne - Live @ Hurricane Festival 2024 FEED HDTV H264 1080i MP2-ilya2129]]></title>
                <link><![CDATA[https://sharemania.us/threads/avril-lavigne-live-hurricane-festival-2024-feed-hdtv-h264-1080i-mp2-ilya2129.247847/]]></link>
                <description><![CDATA[<article>
<blockquote class="messageText SelectQuoteContainer ugc baseHtml">
<div style="text-align: center"><img src="https://i123.fastpic.org/big/2024/0622/74/a9f6ecd03e892f5d9a7b2393988ccb74.png?r=1" class="bbCodeImage LbImage" alt="[​IMG]" data-url="https://i123.fastpic.org/big/2024/0622/74/a9f6ecd03e892f5d9a7b2393988ccb74.png?r=1" style=""><br>
<br>
<a href="https://fastpic.org/view/123/2024/0625/_b277c99effa95b442f91bde9312f207e.png.html" target="_blank" class="externalLink" rel="nofollow"><img src="https://i123.fastpic.org/thumb/2024/0625/7e/_b277c99effa95b442f91bde9312f207e.jpeg" class="bbCodeImage LbImage" alt="[​IMG]" data-url="https://i123.fastpic.org/thumb/2024/0625/7e/_b277c99effa95b442f91bde9312f207e.jpeg"></a> <a href="https://fastpic.org/view/123/2024/0625/_717ded0986f0b9eda3871d3b662fefc9.png.html" target="_blank" class="externalLink" rel="nofollow"><img src="https://i123.fastpic.org/thumb/2024/0625/c9/_717ded0986f0b9eda3871d3b662fefc9.jpeg" class="bbCodeImage LbImage" alt="[​IMG]" data-url="https://i123.fastpic.org/thumb/2024/0625/c9/_717ded0986f0b9eda3871d3b662fefc9.jpeg"></a> <a href="https://fastpic.org/view/123/2024/0625/_3a37d403510abf0be831137cbd815a8f.png.html" target="_blank" class="externalLink" rel="nofollow"><img src="https://i123.fastpic.org/thumb/2024/0625/8f/_3a37d403510abf0be831137cbd815a8f.jpeg" class="bbCodeImage LbImage" alt="[​IMG]" data-url="https://i123.fastpic.org/thumb/2024/0625/8f/_3a37d403510abf0be831137cbd815a8f.jpeg"></a> <a href="https://fastpic.org/view/123/2024/0625/_f55ff692ddbc6de4fb655576333a7f17.png.html" target="_blank" class="externalLink" rel="nofollow"><img src="https://i123.fastpic.org/thumb/2024/0625/17/_f55ff692ddbc6de4fb655576333a7f17.jpeg" class="bbCodeImage LbImage" alt="[​IMG]" data-url="https://i123.fastpic.org/thumb/2024/0625/17/_f55ff692ddbc6de4fb655576333a7f17.jpeg"></a> <a href="https://fastpic.org/view/123/2024/0625/_0afb08bc9ca3b56a6dd591c150318cc2.png.html" target="_blank" class="externalLink" rel="nofollow"><img src="https://i123.fastpic.org/thumb/2024/0625/c2/_0afb08bc9ca3b56a6dd591c150318cc2.jpeg" class="bbCodeImage LbImage" alt="[​IMG]" data-url="https://i123.fastpic.org/thumb/2024/0625/c2/_0afb08bc9ca3b56a6dd591c150318cc2.jpeg"></a> <a href="https://fastpic.org/view/123/2024/0625/_e13630d31934420c9946a0b88de8d740.png.html" target="_blank" class="externalLink" rel="nofollow"><img src="https://i123.fastpic.org/thumb/2024/0625/40/_e13630d31934420c9946a0b88de8d740.jpeg" class="bbCodeImage LbImage" alt="[​IMG]" data-url="https://i123.fastpic.org/thumb/2024/0625/40/_e13630d31934420c9946a0b88de8d740.jpeg"></a><br>
<br>
​</div><br>
<div class="bbCodeBlock bbCodeCode">
<div class="type">Code:</div>
<pre>General
ID                                       : 1 (0x1)
Complete name                            : C:\Recordings\Avril Lavigne - Live @ Hurricane Festival 2024 FEED HDTV H264 1080i MP2-ilya2129.ts
Format                                   : MPEG-TS
File size                                : 10.4 GiB
Duration                                 : 1 h 10 min
Overall bit rate mode                    : Variable
Overall bit rate                         : 21.2 Mb/s
Frame rate                               : 25.000 FPS

Video
ID                                       : 256 (0x100)
Menu ID                                  : 1 (0x1)
Format                                   : AVC
Format/Info                              : Advanced Video Codec
Format profile                           : High 4:2:2@L4.1
Format settings                          : CABAC / 4 Ref Frames
Format settings, CABAC                   : Yes
Format settings, Reference frames        : 4 frames
Codec ID                                 : 27
Duration                                 : 1 h 10 min
Bit rate                                 : 19.4 Mb/s
Width                                    : 1 920 pixels
Height                                   : 1 080 pixels
Display aspect ratio                     : 16:9
Frame rate                               : 25.000 FPS
Color space                              : YUV
Chroma subsampling                       : 4:2:2
Bit depth                                : 8 bits
Scan type                                : Interlaced
Scan type, store method                  : Separated fields
Scan order                               : Top Field First
Bits/(Pixel*Frame)                       : 0.373
Stream size                              : 9.52 GiB (91%)
Color range                              : Limited
Color primaries                          : BT.709
Transfer characteristics                 : BT.709
Matrix coefficients                      : BT.709

Audio #1
ID                                       : 257 (0x101)
Menu ID                                  : 1 (0x1)
Format                                   : MPEG Audio
Format version                           : Version 1
Format profile                           : Layer 2
Codec ID                                 : 3
Duration                                 : 1 h 10 min
Bit rate mode                            : Constant
Bit rate                                 : 384 kb/s
Channel(s)                               : 2 channels
Sampling rate                            : 48.0 kHz
Frame rate                               : 41.667 FPS (1152 SPF)
Compression mode                         : Lossy
Delay relative to video                  : 22 ms
Stream size                              : 193 MiB (2%)
Language                                 : one

Audio #2
ID                                       : 258 (0x102)
Menu ID                                  : 1 (0x1)
Format                                   : MPEG Audio
Format version                           : Version 1
Format profile                           : Layer 2
Codec ID                                 : 3
Duration                                 : 8 s 976 ms
Bit rate mode                            : Constant
Bit rate                                 : 384 kb/s
Channel(s)                               : 2 channels
Sampling rate                            : 48.0 kHz
Frame rate                               : 41.667 FPS (1152 SPF)
Compression mode                         : Lossy
Stream size                              : 421 KiB (0%)
Language                                 : one
</pre>
</div><div style="text-align: center"><br>
<div class="bbCodeBlock bbCodeVfcHH HiddenContent">
<div class="attribution type">Hidden Content:</div>
<blockquote>You must reply before you can see the hidden data contained here.</blockquote>
</div></div>
<div class="messageTextEndMarker">&nbsp;</div>
</blockquote>
</article>]]></description>
                <author><![CDATA[ilya2129]]></author>
                </item>

                </channel></rss>